<svg xmlns="http://www.w3.org/2000/svg" viewBox="0 0 24 24" width="24" height="24" aria-hidden="true">
  <path fill="#000000" d="M21.58 7.19c-.2-1.48-1.5-2.64-2.99-3.03C16.63 3.64 14.55 3.4 12 3.4c-2.55 0-4.63.24-6.59.76C3.92 4.55 2.62 5.71 2.42 7.19c-.14 1.02-.23 2.14-.23 3.36 0 2.63.35 4.8 1.04 6.51.79 1.97 2.45 3.06 4.98 3.27 1.2.1 2.47.03 3.79-.22 1.33-.25 2.44-.63 3.34-1.14l-.73-2.4c-.8.4-1.68.7-2.62.89-.94.19-1.88.24-2.81.16-1.47-.12-2.39-.68-2.76-1.69-.22-.59-.34-1.27-.36-2.04 1.02.25 2.08.38 3.19.38h1.51c2.54 0 4.36-.24 5.47-.73 1.12-.49 1.89-1.35 2.3-2.59.25-.74.38-1.69.38-2.86 0-1.22-.08-2.34-.23-3.36zM16.8 13.16h-2.45V9.74c0-.72-.29-1.08-.87-1.08-.66 0-.98.42-.98 1.27v1.87h-2.43V9.93c0-.85-.33-1.27-.98-1.27-.58 0-.87.36-.87 1.08v3.42H5.77V9.63c0-.72.19-1.3.58-1.73.39-.43.9-.65 1.54-.65.73 0 1.29.28 1.69.85l.37.61.37-.61c.4-.57.96-.85 1.69-.85.64 0 1.15.22 1.54.65.39.43.58 1.01.58 1.73v3.53z"/>
</svg>
