<svg xmlns="http://www.w3.org/2000/svg" viewBox="0 0 32 32" width="32" height="32">
  <defs>
    <!-- Hot pink color -->
    <style>
      .pixel { fill: #FF4DC9; }
      .pixel-bright { fill: #FF69B4; }
      .pixel-core { fill: #FF1493; }
    </style>
  </defs>
  
  <!-- Frame 1: Small burst (0-0.33s) -->
  <g id="frame1">
    <animate attributeName="opacity" values="1;1;0;0;0" dur="1s" repeatCount="indefinite" begin="0s"/>
    <!-- Center core -->
    <rect x="14" y="14" width="4" height="4" class="pixel-core"/>
    <!-- Small burst pixels -->
    <rect x="12" y="12" width="2" height="2" class="pixel"/>
    <rect x="18" y="12" width="2" height="2" class="pixel"/>
    <rect x="12" y="18" width="2" height="2" class="pixel"/>
    <rect x="18" y="18" width="2" height="2" class="pixel"/>
    <rect x="15" y="10" width="2" height="2" class="pixel"/>
    <rect x="15" y="20" width="2" height="2" class="pixel"/>
    <rect x="10" y="15" width="2" height="2" class="pixel"/>
    <rect x="20" y="15" width="2" height="2" class="pixel"/>
  </g>
  
  <!-- Frame 2: Medium burst (0.33-0.66s) -->
  <g id="frame2">
    <animate attributeName="opacity" values="0;0;1;1;0" dur="1s" repeatCount="indefinite" begin="0s"/>
    <!-- Center core -->
    <rect x="14" y="14" width="4" height="4" class="pixel-core"/>
    <!-- Inner ring -->
    <rect x="10" y="10" width="2" height="2" class="pixel-bright"/>
    <rect x="20" y="10" width="2" height="2" class="pixel-bright"/>
    <rect x="10" y="20" width="2" height="2" class="pixel-bright"/>
    <rect x="20" y="20" width="2" height="2" class="pixel-bright"/>
    <rect x="13" y="8" width="2" height="2" class="pixel-bright"/>
    <rect x="17" y="8" width="2" height="2" class="pixel-bright"/>
    <rect x="13" y="22" width="2" height="2" class="pixel-bright"/>
    <rect x="17" y="22" width="2" height="2" class="pixel-bright"/>
    <rect x="8" y="13" width="2" height="2" class="pixel-bright"/>
    <rect x="8" y="17" width="2" height="2" class="pixel-bright"/>
    <rect x="22" y="13" width="2" height="2" class="pixel-bright"/>
    <rect x="22" y="17" width="2" height="2" class="pixel-bright"/>
    <!-- Outer pixels -->
    <rect x="12" y="12" width="2" height="2" class="pixel"/>
    <rect x="18" y="12" width="2" height="2" class="pixel"/>
    <rect x="12" y="18" width="2" height="2" class="pixel"/>
    <rect x="18" y="18" width="2" height="2" class="pixel"/>
    <rect x="15" y="10" width="2" height="2" class="pixel"/>
    <rect x="15" y="20" width="2" height="2" class="pixel"/>
    <rect x="10" y="15" width="2" height="2" class="pixel"/>
    <rect x="20" y="15" width="2" height="2" class="pixel"/>
  </g>
  
  <!-- Frame 3: Full explosion (0.66-1s) -->
  <g id="frame3">
    <animate attributeName="opacity" values="0;0;0;1;0" dur="1s" repeatCount="indefinite" begin="0s"/>
    <!-- Center core -->
    <rect x="14" y="14" width="4" height="4" class="pixel-core"/>
    <!-- Inner ring -->
    <rect x="10" y="10" width="2" height="2" class="pixel-bright"/>
    <rect x="20" y="10" width="2" height="2" class="pixel-bright"/>
    <rect x="10" y="20" width="2" height="2" class="pixel-bright"/>
    <rect x="20" y="20" width="2" height="2" class="pixel-bright"/>
    <rect x="13" y="8" width="2" height="2" class="pixel-bright"/>
    <rect x="17" y="8" width="2" height="2" class="pixel-bright"/>
    <rect x="13" y="22" width="2" height="2" class="pixel-bright"/>
    <rect x="17" y="22" width="2" height="2" class="pixel-bright"/>
    <rect x="8" y="13" width="2" height="2" class="pixel-bright"/>
    <rect x="8" y="17" width="2" height="2" class="pixel-bright"/>
    <rect x="22" y="13" width="2" height="2" class="pixel-bright"/>
    <rect x="22" y="17" width="2" height="2" class="pixel-bright"/>
    <!-- Middle ring -->
    <rect x="12" y="12" width="2" height="2" class="pixel"/>
    <rect x="18" y="12" width="2" height="2" class="pixel"/>
    <rect x="12" y="18" width="2" height="2" class="pixel"/>
    <rect x="18" y="18" width="2" height="2" class="pixel"/>
    <rect x="15" y="10" width="2" height="2" class="pixel"/>
    <rect x="15" y="20" width="2" height="2" class="pixel"/>
    <rect x="10" y="15" width="2" height="2" class="pixel"/>
    <rect x="20" y="15" width="2" height="2" class="pixel"/>
    <!-- Outer explosion pixels -->
    <rect x="6" y="6" width="2" height="2" class="pixel"/>
    <rect x="24" y="6" width="2" height="2" class="pixel"/>
    <rect x="6" y="24" width="2" height="2" class="pixel"/>
    <rect x="24" y="24" width="2" height="2" class="pixel"/>
    <rect x="11" y="4" width="2" height="2" class="pixel"/>
    <rect x="19" y="4" width="2" height="2" class="pixel"/>
    <rect x="11" y="26" width="2" height="2" class="pixel"/>
    <rect x="19" y="26" width="2" height="2" class="pixel"/>
    <rect x="4" y="11" width="2" height="2" class="pixel"/>
    <rect x="4" y="19" width="2" height="2" class="pixel"/>
    <rect x="26" y="11" width="2" height="2" class="pixel"/>
    <rect x="26" y="19" width="2" height="2" class="pixel"/>
    <!-- Diagonal pixels -->
    <rect x="9" y="7" width="2" height="2" class="pixel"/>
    <rect x="21" y="7" width="2" height="2" class="pixel"/>
    <rect x="9" y="23" width="2" height="2" class="pixel"/>
    <rect x="21" y="23" width="2" height="2" class="pixel"/>
    <rect x="7" y="9" width="2" height="2" class="pixel"/>
    <rect x="23" y="9" width="2" height="2" class="pixel"/>
    <rect x="7" y="21" width="2" height="2" class="pixel"/>
    <rect x="23" y="21" width="2" height="2" class="pixel"/>
  </g>
</svg>

